<?xml version="1.0" encoding="UTF-8" standalone="no"?>
<!DOCTYPE svg PUBLIC "-//W3C//DTD SVG 1.1//EN"
 "http://www.w3.org/Graphics/SVG/1.1/DTD/svg11.dtd">
<!-- Generated by graphviz version 2.40.1 (20161225.0304)
 -->
<!-- Title: snakemake_dag Pages: 1 -->
<svg width="336pt" height="116pt"
 viewBox="0.00 0.00 335.50 116.00" xmlns="http://www.w3.org/2000/svg" xmlns:xlink="http://www.w3.org/1999/xlink">
<g id="graph0" class="graph" transform="scale(1 1) rotate(0) translate(4 112)">
<title>snakemake_dag</title>
<polygon fill="#ffffff" stroke="transparent" points="-4,4 -4,-112 331.5,-112 331.5,4 -4,4"/>
<!-- 0 -->
<g id="node1" class="node">
<title>0</title>
<path fill="none" stroke="#d85656" stroke-width="2" d="M169.5,-36C169.5,-36 134.5,-36 134.5,-36 128.5,-36 122.5,-30 122.5,-24 122.5,-24 122.5,-12 122.5,-12 122.5,-6 128.5,0 134.5,0 134.5,0 169.5,0 169.5,0 175.5,0 181.5,-6 181.5,-12 181.5,-12 181.5,-24 181.5,-24 181.5,-30 175.5,-36 169.5,-36"/>
<text text-anchor="middle" x="152" y="-15.5" font-family="sans" font-size="10.00" fill="#000000">zipf_test</text>
</g>
<!-- 1 -->
<g id="node2" class="node">
<title>1</title>
<path fill="none" stroke="#afd856" stroke-width="2" d="M66,-108C66,-108 12,-108 12,-108 6,-108 0,-102 0,-96 0,-96 0,-84 0,-84 0,-78 6,-72 12,-72 12,-72 66,-72 66,-72 72,-72 78,-78 78,-84 78,-84 78,-96 78,-96 78,-102 72,-108 66,-108"/>
<text text-anchor="middle" x="39" y="-87.5" font-family="sans" font-size="10.00" fill="#000000">count_words</text>
</g>
<!-- 1&#45;&gt;0 -->
<g id="edge1" class="edge">
<title>1&#45;&gt;0</title>
<path fill="none" stroke="#c0c0c0" stroke-width="2" d="M67.5147,-71.8314C81.8342,-62.7074 99.3624,-51.539 114.7338,-41.7449"/>
<polygon fill="#c0c0c0" stroke="#c0c0c0" stroke-width="2" points="116.9417,-44.4882 123.4945,-36.1628 113.1801,-38.5847 116.9417,-44.4882"/>
</g>
<!-- 2 -->
<g id="node3" class="node">
<title>2</title>
<path fill="none" stroke="#56d8a9" stroke-width="2" d="M196,-108C196,-108 108,-108 108,-108 102,-108 96,-102 96,-96 96,-96 96,-84 96,-84 96,-78 102,-72 108,-72 108,-72 196,-72 196,-72 202,-72 208,-78 208,-84 208,-84 208,-96 208,-96 208,-102 202,-108 196,-108"/>
<text text-anchor="middle" x="152" y="-87.5" font-family="sans" font-size="10.00" fill="#000000">count_words_abyss</text>
</g>
<!-- 2&#45;&gt;0 -->
<g id="edge2" class="edge">
<title>2&#45;&gt;0</title>
<path fill="none" stroke="#c0c0c0" stroke-width="2" d="M152,-71.8314C152,-64.131 152,-54.9743 152,-46.4166"/>
<polygon fill="#c0c0c0" stroke="#c0c0c0" stroke-width="2" points="155.5001,-46.4132 152,-36.4133 148.5001,-46.4133 155.5001,-46.4132"/>
</g>
<!-- 3 -->
<g id="node4" class="node">
<title>3</title>
<path fill="none" stroke="#d8ac56" stroke-width="2" d="M315.5,-108C315.5,-108 238.5,-108 238.5,-108 232.5,-108 226.5,-102 226.5,-96 226.5,-96 226.5,-84 226.5,-84 226.5,-78 232.5,-72 238.5,-72 238.5,-72 315.5,-72 315.5,-72 321.5,-72 327.5,-78 327.5,-84 327.5,-84 327.5,-96 327.5,-96 327.5,-102 321.5,-108 315.5,-108"/>
<text text-anchor="middle" x="277" y="-87.5" font-family="sans" font-size="10.00" fill="#000000">count_words_last</text>
</g>
<!-- 3&#45;&gt;0 -->
<g id="edge3" class="edge">
<title>3&#45;&gt;0</title>
<path fill="none" stroke="#c0c0c0" stroke-width="2" d="M245.4572,-71.8314C228.8282,-62.253 208.2876,-50.4217 190.702,-40.2923"/>
<polygon fill="#c0c0c0" stroke="#c0c0c0" stroke-width="2" points="192.2238,-37.1299 181.8116,-35.1715 188.7299,-43.1956 192.2238,-37.1299"/>
</g>
</g>
</svg>
