<?xml version="1.0" encoding="UTF-8" standalone="no"?>
<!DOCTYPE svg PUBLIC "-//W3C//DTD SVG 1.1//EN"
 "http://www.w3.org/Graphics/SVG/1.1/DTD/svg11.dtd">
<!-- Generated by graphviz version 2.40.1 (20161225.0304)
 -->
<!-- Title: snakemake_dag Pages: 1 -->
<svg width="216pt" height="116pt"
 viewBox="0.00 0.00 216.00 116.00" xmlns="http://www.w3.org/2000/svg" xmlns:xlink="http://www.w3.org/1999/xlink">
<g id="graph0" class="graph" transform="scale(1 1) rotate(0) translate(4 112)">
<title>snakemake_dag</title>
<polygon fill="#ffffff" stroke="transparent" points="-4,4 -4,-112 212,-112 212,4 -4,4"/>
<!-- 0 -->
<g id="node1" class="node">
<title>0</title>
<path fill="none" stroke="#59d856" stroke-width="2" d="M127,-36C127,-36 97,-36 97,-36 91,-36 85,-30 85,-24 85,-24 85,-12 85,-12 85,-6 91,0 97,0 97,0 127,0 127,0 133,0 139,-6 139,-12 139,-12 139,-24 139,-24 139,-30 133,-36 127,-36"/>
<text text-anchor="middle" x="112" y="-15.5" font-family="sans" font-size="10.00" fill="#000000">dats</text>
</g>
<!-- 1 -->
<g id="node2" class="node">
<title>1</title>
<path fill="none" stroke="#d6d856" stroke-width="2" d="M100,-108C100,-108 12,-108 12,-108 6,-108 0,-102 0,-96 0,-96 0,-84 0,-84 0,-78 6,-72 12,-72 12,-72 100,-72 100,-72 106,-72 112,-78 112,-84 112,-84 112,-96 112,-96 112,-102 106,-108 100,-108"/>
<text text-anchor="middle" x="56" y="-87.5" font-family="sans" font-size="10.00" fill="#000000">count_words_abyss</text>
</g>
<!-- 1&#45;&gt;0 -->
<g id="edge1" class="edge">
<title>1&#45;&gt;0</title>
<path fill="none" stroke="#c0c0c0" stroke-width="2" d="M70.1312,-71.8314C76.5811,-63.5386 84.3445,-53.557 91.4252,-44.4533"/>
<polygon fill="#c0c0c0" stroke="#c0c0c0" stroke-width="2" points="94.3019,-46.4556 97.6786,-36.4133 88.7764,-42.158 94.3019,-46.4556"/>
</g>
<!-- 2 -->
<g id="node3" class="node">
<title>2</title>
<path fill="none" stroke="#56d8d8" stroke-width="2" d="M196,-108C196,-108 142,-108 142,-108 136,-108 130,-102 130,-96 130,-96 130,-84 130,-84 130,-78 136,-72 142,-72 142,-72 196,-72 196,-72 202,-72 208,-78 208,-84 208,-84 208,-96 208,-96 208,-102 202,-108 196,-108"/>
<text text-anchor="middle" x="169" y="-87.5" font-family="sans" font-size="10.00" fill="#000000">count_words</text>
</g>
<!-- 2&#45;&gt;0 -->
<g id="edge2" class="edge">
<title>2&#45;&gt;0</title>
<path fill="none" stroke="#c0c0c0" stroke-width="2" d="M154.6165,-71.8314C148.0514,-63.5386 140.1493,-53.557 132.9422,-44.4533"/>
<polygon fill="#c0c0c0" stroke="#c0c0c0" stroke-width="2" points="135.5284,-42.0813 126.5772,-36.4133 130.0401,-46.4262 135.5284,-42.0813"/>
</g>
</g>
</svg>
