<?xml version="1.0" encoding="UTF-8" standalone="no"?>
<!DOCTYPE svg PUBLIC "-//W3C//DTD SVG 1.1//EN"
 "http://www.w3.org/Graphics/SVG/1.1/DTD/svg11.dtd">
<!-- Generated by graphviz version 2.40.1 (20161225.0304)
 -->
<!-- Title: snakemake_dag Pages: 1 -->
<svg width="519pt" height="260pt"
 viewBox="0.00 0.00 519.17 260.00" xmlns="http://www.w3.org/2000/svg" xmlns:xlink="http://www.w3.org/1999/xlink">
<g id="graph0" class="graph" transform="scale(1 1) rotate(0) translate(4 256)">
<title>snakemake_dag</title>
<polygon fill="#ffffff" stroke="transparent" points="-4,4 -4,-256 515.1734,-256 515.1734,4 -4,4"/>
<!-- 0 -->
<g id="node1" class="node">
<title>0</title>
<path fill="none" stroke="#56a9d8" stroke-width="2" d="M270.5867,-36C270.5867,-36 240.5867,-36 240.5867,-36 234.5867,-36 228.5867,-30 228.5867,-24 228.5867,-24 228.5867,-12 228.5867,-12 228.5867,-6 234.5867,0 240.5867,0 240.5867,0 270.5867,0 270.5867,0 276.5867,0 282.5867,-6 282.5867,-12 282.5867,-12 282.5867,-24 282.5867,-24 282.5867,-30 276.5867,-36 270.5867,-36"/>
<text text-anchor="middle" x="255.5867" y="-15.5" font-family="sans" font-size="10.00" fill="#000000">all</text>
</g>
<!-- 1 -->
<g id="node2" class="node">
<title>1</title>
<path fill="none" stroke="#afd856" stroke-width="2" d="M286.5867,-108C286.5867,-108 224.5867,-108 224.5867,-108 218.5867,-108 212.5867,-102 212.5867,-96 212.5867,-96 212.5867,-84 212.5867,-84 212.5867,-78 218.5867,-72 224.5867,-72 224.5867,-72 286.5867,-72 286.5867,-72 292.5867,-72 298.5867,-78 298.5867,-84 298.5867,-84 298.5867,-96 298.5867,-96 298.5867,-102 292.5867,-108 286.5867,-108"/>
<text text-anchor="middle" x="255.5867" y="-87.5" font-family="sans" font-size="10.00" fill="#000000">make_archive</text>
</g>
<!-- 1&#45;&gt;0 -->
<g id="edge1" class="edge">
<title>1&#45;&gt;0</title>
<path fill="none" stroke="#c0c0c0" stroke-width="2" d="M255.5867,-71.8314C255.5867,-64.131 255.5867,-54.9743 255.5867,-46.4166"/>
<polygon fill="#c0c0c0" stroke="#c0c0c0" stroke-width="2" points="259.0868,-46.4132 255.5867,-36.4133 252.0868,-46.4133 259.0868,-46.4132"/>
</g>
<!-- 2 -->
<g id="node3" class="node">
<title>2</title>
<path fill="none" stroke="#d85656" stroke-width="2" d="M273.0867,-180C273.0867,-180 238.0867,-180 238.0867,-180 232.0867,-180 226.0867,-174 226.0867,-168 226.0867,-168 226.0867,-156 226.0867,-156 226.0867,-150 232.0867,-144 238.0867,-144 238.0867,-144 273.0867,-144 273.0867,-144 279.0867,-144 285.0867,-150 285.0867,-156 285.0867,-156 285.0867,-168 285.0867,-168 285.0867,-174 279.0867,-180 273.0867,-180"/>
<text text-anchor="middle" x="255.5867" y="-159.5" font-family="sans" font-size="10.00" fill="#000000">zipf_test</text>
</g>
<!-- 2&#45;&gt;1 -->
<g id="edge2" class="edge">
<title>2&#45;&gt;1</title>
<path fill="none" stroke="#c0c0c0" stroke-width="2" d="M255.5867,-143.8314C255.5867,-136.131 255.5867,-126.9743 255.5867,-118.4166"/>
<polygon fill="#c0c0c0" stroke="#c0c0c0" stroke-width="2" points="259.0868,-118.4132 255.5867,-108.4133 252.0868,-118.4133 259.0868,-118.4132"/>
</g>
<!-- 3 -->
<g id="node4" class="node">
<title>3</title>
<path fill="none" stroke="#d8ac56" stroke-width="2" d="M71.5867,-180C71.5867,-180 27.5867,-180 27.5867,-180 21.5867,-180 15.5867,-174 15.5867,-168 15.5867,-168 15.5867,-156 15.5867,-156 15.5867,-150 21.5867,-144 27.5867,-144 27.5867,-144 71.5867,-144 71.5867,-144 77.5867,-144 83.5867,-150 83.5867,-156 83.5867,-156 83.5867,-168 83.5867,-168 83.5867,-174 77.5867,-180 71.5867,-180"/>
<text text-anchor="middle" x="49.5867" y="-159.5" font-family="sans" font-size="10.00" fill="#000000">make_plot</text>
</g>
<!-- 3&#45;&gt;1 -->
<g id="edge3" class="edge">
<title>3&#45;&gt;1</title>
<path fill="none" stroke="#c0c0c0" stroke-width="2" d="M83.7599,-147.4175C86.734,-146.2328 89.7065,-145.0781 92.5867,-144 129.0213,-130.3618 170.667,-116.5956 202.743,-106.3761"/>
<polygon fill="#c0c0c0" stroke="#c0c0c0" stroke-width="2" points="203.8996,-109.6812 212.3741,-103.3224 201.7839,-103.0085 203.8996,-109.6812"/>
</g>
<!-- 4 -->
<g id="node5" class="node">
<title>4</title>
<path fill="none" stroke="#59d856" stroke-width="2" d="M76.5867,-252C76.5867,-252 22.5867,-252 22.5867,-252 16.5867,-252 10.5867,-246 10.5867,-240 10.5867,-240 10.5867,-228 10.5867,-228 10.5867,-222 16.5867,-216 22.5867,-216 22.5867,-216 76.5867,-216 76.5867,-216 82.5867,-216 88.5867,-222 88.5867,-228 88.5867,-228 88.5867,-240 88.5867,-240 88.5867,-246 82.5867,-252 76.5867,-252"/>
<text text-anchor="middle" x="49.5867" y="-237" font-family="sans" font-size="10.00" fill="#000000">count_words</text>
<text text-anchor="middle" x="49.5867" y="-226" font-family="sans" font-size="10.00" fill="#000000">file: sierra</text>
</g>
<!-- 4&#45;&gt;1 -->
<g id="edge4" class="edge">
<title>4&#45;&gt;1</title>
<path fill="none" stroke="#c0c0c0" stroke-width="2" d="M29.6703,-215.6964C11.146,-196.4514 -11.1315,-165.9726 6.5867,-144 30.6699,-114.1341 136.4465,-99.9486 202.1449,-93.9062"/>
<polygon fill="#c0c0c0" stroke="#c0c0c0" stroke-width="2" points="202.6738,-97.3732 212.3263,-93.0052 202.0566,-90.4004 202.6738,-97.3732"/>
</g>
<!-- 4&#45;&gt;2 -->
<g id="edge11" class="edge">
<title>4&#45;&gt;2</title>
<path fill="none" stroke="#c0c0c0" stroke-width="2" d="M88.8186,-220.2879C125.3115,-207.5331 179.4112,-188.6244 216.0134,-175.8314"/>
<polygon fill="#c0c0c0" stroke="#c0c0c0" stroke-width="2" points="217.5587,-178.999 225.8439,-172.3955 215.2491,-172.391 217.5587,-178.999"/>
</g>
<!-- 4&#45;&gt;3 -->
<g id="edge15" class="edge">
<title>4&#45;&gt;3</title>
<path fill="none" stroke="#c0c0c0" stroke-width="2" d="M49.5867,-215.8314C49.5867,-208.131 49.5867,-198.9743 49.5867,-190.4166"/>
<polygon fill="#c0c0c0" stroke="#c0c0c0" stroke-width="2" points="53.0868,-190.4132 49.5867,-180.4133 46.0868,-190.4133 53.0868,-190.4132"/>
</g>
<!-- 5 -->
<g id="node6" class="node">
<title>5</title>
<path fill="none" stroke="#59d856" stroke-width="2" d="M224.5867,-252C224.5867,-252 170.5867,-252 170.5867,-252 164.5867,-252 158.5867,-246 158.5867,-240 158.5867,-240 158.5867,-228 158.5867,-228 158.5867,-222 164.5867,-216 170.5867,-216 170.5867,-216 224.5867,-216 224.5867,-216 230.5867,-216 236.5867,-222 236.5867,-228 236.5867,-228 236.5867,-240 236.5867,-240 236.5867,-246 230.5867,-252 224.5867,-252"/>
<text text-anchor="middle" x="197.5867" y="-237" font-family="sans" font-size="10.00" fill="#000000">count_words</text>
<text text-anchor="middle" x="197.5867" y="-226" font-family="sans" font-size="10.00" fill="#000000">file: last</text>
</g>
<!-- 5&#45;&gt;1 -->
<g id="edge5" class="edge">
<title>5&#45;&gt;1</title>
<path fill="none" stroke="#c0c0c0" stroke-width="2" d="M199.1944,-215.7295C201.3471,-197.0458 206.1787,-167.5099 216.5867,-144 220.8701,-134.3244 227.0739,-124.6668 233.2779,-116.2504"/>
<polygon fill="#c0c0c0" stroke="#c0c0c0" stroke-width="2" points="236.0785,-118.3501 239.411,-108.293 230.5342,-114.0769 236.0785,-118.3501"/>
</g>
<!-- 5&#45;&gt;2 -->
<g id="edge12" class="edge">
<title>5&#45;&gt;2</title>
<path fill="none" stroke="#c0c0c0" stroke-width="2" d="M212.2225,-215.8314C218.9028,-207.5386 226.9435,-197.557 234.2771,-188.4533"/>
<polygon fill="#c0c0c0" stroke="#c0c0c0" stroke-width="2" points="237.2061,-190.3965 240.7538,-180.4133 231.7548,-186.0052 237.2061,-190.3965"/>
</g>
<!-- 6 -->
<g id="node7" class="node">
<title>6</title>
<path fill="none" stroke="#d8ac56" stroke-width="2" d="M157.5867,-180C157.5867,-180 113.5867,-180 113.5867,-180 107.5867,-180 101.5867,-174 101.5867,-168 101.5867,-168 101.5867,-156 101.5867,-156 101.5867,-150 107.5867,-144 113.5867,-144 113.5867,-144 157.5867,-144 157.5867,-144 163.5867,-144 169.5867,-150 169.5867,-156 169.5867,-156 169.5867,-168 169.5867,-168 169.5867,-174 163.5867,-180 157.5867,-180"/>
<text text-anchor="middle" x="135.5867" y="-159.5" font-family="sans" font-size="10.00" fill="#000000">make_plot</text>
</g>
<!-- 5&#45;&gt;6 -->
<g id="edge16" class="edge">
<title>5&#45;&gt;6</title>
<path fill="none" stroke="#c0c0c0" stroke-width="2" d="M181.9415,-215.8314C174.7276,-207.454 166.0297,-197.3531 158.1262,-188.1749"/>
<polygon fill="#c0c0c0" stroke="#c0c0c0" stroke-width="2" points="160.62,-185.7071 151.4426,-180.4133 155.3156,-190.2748 160.62,-185.7071"/>
</g>
<!-- 6&#45;&gt;1 -->
<g id="edge6" class="edge">
<title>6&#45;&gt;1</title>
<path fill="none" stroke="#c0c0c0" stroke-width="2" d="M165.8678,-143.8314C181.2165,-134.6221 200.0365,-123.3301 216.469,-113.4706"/>
<polygon fill="#c0c0c0" stroke="#c0c0c0" stroke-width="2" points="218.5411,-116.3091 225.3153,-108.1628 214.9396,-110.3066 218.5411,-116.3091"/>
</g>
<!-- 7 -->
<g id="node8" class="node">
<title>7</title>
<path fill="none" stroke="#59d856" stroke-width="2" d="M364.5867,-252C364.5867,-252 310.5867,-252 310.5867,-252 304.5867,-252 298.5867,-246 298.5867,-240 298.5867,-240 298.5867,-228 298.5867,-228 298.5867,-222 304.5867,-216 310.5867,-216 310.5867,-216 364.5867,-216 364.5867,-216 370.5867,-216 376.5867,-222 376.5867,-228 376.5867,-228 376.5867,-240 376.5867,-240 376.5867,-246 370.5867,-252 364.5867,-252"/>
<text text-anchor="middle" x="337.5867" y="-237" font-family="sans" font-size="10.00" fill="#000000">count_words</text>
<text text-anchor="middle" x="337.5867" y="-226" font-family="sans" font-size="10.00" fill="#000000">file: abyss</text>
</g>
<!-- 7&#45;&gt;1 -->
<g id="edge7" class="edge">
<title>7&#45;&gt;1</title>
<path fill="none" stroke="#c0c0c0" stroke-width="2" d="M356.9544,-215.9899C374.6834,-197.2561 395.9958,-167.4423 380.5867,-144 364.5822,-119.6521 335.0133,-106.2318 308.6513,-98.8608"/>
<polygon fill="#c0c0c0" stroke="#c0c0c0" stroke-width="2" points="309.2955,-95.4128 298.7397,-96.3217 307.5584,-102.1939 309.2955,-95.4128"/>
</g>
<!-- 7&#45;&gt;2 -->
<g id="edge13" class="edge">
<title>7&#45;&gt;2</title>
<path fill="none" stroke="#c0c0c0" stroke-width="2" d="M316.8946,-215.8314C306.8919,-207.0485 294.7317,-196.3712 283.8868,-186.8489"/>
<polygon fill="#c0c0c0" stroke="#c0c0c0" stroke-width="2" points="286.0959,-184.1308 276.2721,-180.1628 281.4772,-189.3909 286.0959,-184.1308"/>
</g>
<!-- 8 -->
<g id="node9" class="node">
<title>8</title>
<path fill="none" stroke="#d8ac56" stroke-width="2" d="M359.5867,-180C359.5867,-180 315.5867,-180 315.5867,-180 309.5867,-180 303.5867,-174 303.5867,-168 303.5867,-168 303.5867,-156 303.5867,-156 303.5867,-150 309.5867,-144 315.5867,-144 315.5867,-144 359.5867,-144 359.5867,-144 365.5867,-144 371.5867,-150 371.5867,-156 371.5867,-156 371.5867,-168 371.5867,-168 371.5867,-174 365.5867,-180 359.5867,-180"/>
<text text-anchor="middle" x="337.5867" y="-159.5" font-family="sans" font-size="10.00" fill="#000000">make_plot</text>
</g>
<!-- 7&#45;&gt;8 -->
<g id="edge17" class="edge">
<title>7&#45;&gt;8</title>
<path fill="none" stroke="#c0c0c0" stroke-width="2" d="M337.5867,-215.8314C337.5867,-208.131 337.5867,-198.9743 337.5867,-190.4166"/>
<polygon fill="#c0c0c0" stroke="#c0c0c0" stroke-width="2" points="341.0868,-190.4132 337.5867,-180.4133 334.0868,-190.4133 341.0868,-190.4132"/>
</g>
<!-- 8&#45;&gt;1 -->
<g id="edge8" class="edge">
<title>8&#45;&gt;1</title>
<path fill="none" stroke="#c0c0c0" stroke-width="2" d="M316.8946,-143.8314C306.8919,-135.0485 294.7317,-124.3712 283.8868,-114.8489"/>
<polygon fill="#c0c0c0" stroke="#c0c0c0" stroke-width="2" points="286.0959,-112.1308 276.2721,-108.1628 281.4772,-117.3909 286.0959,-112.1308"/>
</g>
<!-- 9 -->
<g id="node10" class="node">
<title>9</title>
<path fill="none" stroke="#59d856" stroke-width="2" d="M488.5867,-252C488.5867,-252 434.5867,-252 434.5867,-252 428.5867,-252 422.5867,-246 422.5867,-240 422.5867,-240 422.5867,-228 422.5867,-228 422.5867,-222 428.5867,-216 434.5867,-216 434.5867,-216 488.5867,-216 488.5867,-216 494.5867,-216 500.5867,-222 500.5867,-228 500.5867,-228 500.5867,-240 500.5867,-240 500.5867,-246 494.5867,-252 488.5867,-252"/>
<text text-anchor="middle" x="461.5867" y="-237" font-family="sans" font-size="10.00" fill="#000000">count_words</text>
<text text-anchor="middle" x="461.5867" y="-226" font-family="sans" font-size="10.00" fill="#000000">file: isles</text>
</g>
<!-- 9&#45;&gt;1 -->
<g id="edge9" class="edge">
<title>9&#45;&gt;1</title>
<path fill="none" stroke="#c0c0c0" stroke-width="2" d="M481.5031,-215.6964C500.0274,-196.4514 522.3049,-165.9726 504.5867,-144 480.5035,-114.1341 374.7269,-99.9486 309.0285,-93.9062"/>
<polygon fill="#c0c0c0" stroke="#c0c0c0" stroke-width="2" points="309.1167,-90.4004 298.8471,-93.0052 308.4996,-97.3732 309.1167,-90.4004"/>
</g>
<!-- 9&#45;&gt;2 -->
<g id="edge14" class="edge">
<title>9&#45;&gt;2</title>
<path fill="none" stroke="#c0c0c0" stroke-width="2" d="M422.317,-222.7523C388.1767,-212.6312 337.5833,-196.8043 294.5867,-180 294.4912,-179.9627 294.3956,-179.9252 294.2999,-179.8877"/>
<polygon fill="#c0c0c0" stroke="#c0c0c0" stroke-width="2" points="295.817,-176.7278 285.239,-176.1303 293.1355,-183.1939 295.817,-176.7278"/>
</g>
<!-- 10 -->
<g id="node11" class="node">
<title>10</title>
<path fill="none" stroke="#d8ac56" stroke-width="2" d="M483.5867,-180C483.5867,-180 439.5867,-180 439.5867,-180 433.5867,-180 427.5867,-174 427.5867,-168 427.5867,-168 427.5867,-156 427.5867,-156 427.5867,-150 433.5867,-144 439.5867,-144 439.5867,-144 483.5867,-144 483.5867,-144 489.5867,-144 495.5867,-150 495.5867,-156 495.5867,-156 495.5867,-168 495.5867,-168 495.5867,-174 489.5867,-180 483.5867,-180"/>
<text text-anchor="middle" x="461.5867" y="-159.5" font-family="sans" font-size="10.00" fill="#000000">make_plot</text>
</g>
<!-- 9&#45;&gt;10 -->
<g id="edge18" class="edge">
<title>9&#45;&gt;10</title>
<path fill="none" stroke="#c0c0c0" stroke-width="2" d="M461.5867,-215.8314C461.5867,-208.131 461.5867,-198.9743 461.5867,-190.4166"/>
<polygon fill="#c0c0c0" stroke="#c0c0c0" stroke-width="2" points="465.0868,-190.4132 461.5867,-180.4133 458.0868,-190.4133 465.0868,-190.4132"/>
</g>
<!-- 10&#45;&gt;1 -->
<g id="edge10" class="edge">
<title>10&#45;&gt;1</title>
<path fill="none" stroke="#c0c0c0" stroke-width="2" d="M427.5438,-149.0928C422.8624,-147.3592 418.111,-145.6211 413.5867,-144 378.6198,-131.4714 339.0741,-117.9564 308.293,-107.581"/>
<polygon fill="#c0c0c0" stroke="#c0c0c0" stroke-width="2" points="309.218,-104.1995 298.624,-104.328 306.9858,-110.8341 309.218,-104.1995"/>
</g>
</g>
</svg>
